<svg width="24" height="24" viewBox="0 0 24 24" fill="none" xmlns="http://www.w3.org/2000/svg">
<path d="M5.03695 20C4.77159 20 4.50604 19.8985 4.30408 19.6963C3.89864 19.2911 3.89864 18.6358 4.30408 18.2305L18.2302 4.30398C18.6354 3.89872 19.2907 3.89872 19.6959 4.30398C20.1014 4.70924 20.1014 5.36449 19.6959 5.76975L5.76983 19.6963C5.56654 19.8994 5.30231 20 5.03695 20Z" fill="#F18D6C"/>
<path d="M18.963 20C18.6977 20 18.4323 19.8985 18.2302 19.6963L4.30408 5.76975C3.89864 5.36449 3.89864 4.70924 4.30408 4.30398C4.70934 3.89872 5.36438 3.89872 5.76983 4.30398L19.6959 18.2305C20.1014 18.6358 20.1014 19.2911 19.6959 19.6963C19.4938 19.8994 19.2284 20 18.963 20Z" fill="#F18D6C"/>
</svg>
